<svg width="640" height="640" viewBox="0 0 640 640" fill="none" xmlns="http://www.w3.org/2000/svg">
<path d="M64 8H576C606.928 8.00001 632 33.0721 632 64V576C632 606.928 606.928 632 576 632H64C33.0721 632 8 606.928 8 576V64C8.00001 33.0721 33.0721 8 64 8Z" fill="#0F172A" stroke="#223257" stroke-width="16"/>
<path d="M213.568 320L213.696 284.672H130.24V245.76L212.928 134.912H261.056V243.968H287.68V284.672H261.056V320H213.568ZM175.552 243.968H214.208V192.512L175.552 243.968ZM392.932 322.56C375.353 322.56 359.993 318.592 346.852 310.656C333.711 302.635 323.513 291.541 316.26 277.376C309.007 263.125 305.38 246.699 305.38 228.096C305.38 208.896 309.22 192.128 316.9 177.792C324.665 163.371 335.332 152.192 348.9 144.256C362.553 136.32 378.255 132.352 396.004 132.352C408.463 132.352 419.641 134.229 429.54 137.984C439.439 141.739 447.887 146.859 454.884 153.344C461.967 159.744 467.385 166.997 471.14 175.104C474.895 183.211 476.857 191.573 477.028 200.192H424.932C423.823 195.157 421.988 190.635 419.428 186.624C416.953 182.613 413.668 179.456 409.572 177.152C405.476 174.763 400.527 173.568 394.724 173.568C388.665 173.568 382.948 175.232 377.572 178.56C372.281 181.803 367.972 187.307 364.644 195.072C361.401 202.752 359.78 213.248 359.78 226.56C359.78 237.909 360.932 247.083 363.236 254.08C365.625 260.992 368.655 266.283 372.324 269.952C376.079 273.621 380.132 276.096 384.484 277.376C388.836 278.656 392.975 279.296 396.9 279.296C400.399 279.296 403.641 278.784 406.628 277.76C409.615 276.736 412.26 275.413 414.564 273.792C416.868 272.085 418.788 270.208 420.324 268.16C421.945 266.112 423.097 264.021 423.78 261.888L425.956 255.232H393.7V221.696L478.436 222.208V320H445.796V299.52C442.724 302.677 439.012 306.048 434.66 309.632C430.393 313.216 424.932 316.288 418.276 318.848C411.62 321.323 403.172 322.56 392.932 322.56ZM196.032 539.28C181.099 539.28 168.981 537.232 159.68 533.136C150.379 529.04 143.552 523.408 139.2 516.24C134.933 509.072 132.8 500.88 132.8 491.664C132.8 482.875 134.635 475.237 138.304 468.752C141.973 462.181 147.435 456.165 154.688 450.704C162.027 445.157 171.115 439.525 181.952 433.808C177.941 429.2 174.315 425.061 171.072 421.392C167.829 417.637 165.227 413.797 163.264 409.872C161.387 405.861 160.448 401.125 160.448 395.664C160.448 386.96 163.008 379.195 168.128 372.368C173.248 365.456 180.373 360.037 189.504 356.112C198.72 352.101 209.344 350.096 221.376 350.096C233.152 350.096 243.691 351.845 252.992 355.344C262.379 358.843 269.76 363.664 275.136 369.808C280.597 375.952 283.328 383.035 283.328 391.056C283.328 395.92 282.304 400.571 280.256 405.008C278.208 409.36 275.392 413.541 271.808 417.552C268.309 421.477 264.256 425.275 259.648 428.944C255.04 432.613 250.133 436.197 244.928 439.696L263.36 461.456C264.128 458.64 265.067 455.312 266.176 451.472C267.285 447.632 268.395 443.664 269.504 439.568C270.699 435.472 271.723 431.589 272.576 427.92H324.288C321.301 434.405 317.461 441.189 312.768 448.272C308.16 455.269 303.467 462.309 298.688 469.392C293.909 476.389 289.813 483.131 286.4 489.616L327.872 538H271.04L257.216 522.128C246.72 528.869 236.053 533.435 225.216 535.824C214.464 538.128 204.736 539.28 196.032 539.28ZM208.832 502.16C211.819 502.16 215.787 501.52 220.736 500.24C225.771 498.875 230.08 496.613 233.664 493.456L205.76 461.456C200.896 464.272 196.501 467.941 192.576 472.464C188.736 476.987 187.499 482.192 188.864 488.08C189.717 491.408 191.296 494.139 193.6 496.272C195.904 498.32 198.421 499.813 201.152 500.752C203.968 501.691 206.528 502.16 208.832 502.16ZM224.96 415.888C228.715 413.243 231.744 410.725 234.048 408.336C236.352 405.861 238.016 403.429 239.04 401.04C240.064 398.651 240.576 396.176 240.576 393.616C240.576 390.288 239.808 387.515 238.272 385.296C236.821 382.992 234.816 381.285 232.256 380.176C229.781 379.067 227.008 378.597 223.936 378.768C219.584 379.024 216.043 380.389 213.312 382.864C210.667 385.253 209.344 388.325 209.344 392.08C209.344 393.616 209.643 395.28 210.24 397.072C210.923 398.779 211.947 400.699 213.312 402.832C214.763 404.88 216.683 407.184 219.072 409.744L224.96 415.888ZM355.28 538V352.912H439.248C455.291 352.912 468.176 355.557 477.904 360.848C487.717 366.139 494.843 373.307 499.28 382.352C503.717 391.312 505.936 401.381 505.936 412.56C505.936 422.032 504.656 430.139 502.096 436.88C499.621 443.536 496.165 449.253 491.728 454.032C487.376 458.725 482.341 462.821 476.624 466.32L509.136 538H458.064L431.184 474.256H405.072V538H355.28ZM405.072 437.136H433.616C440.016 437.136 445.307 434.619 449.488 429.584C453.755 424.549 455.888 419.045 455.888 413.072C455.888 406.672 453.584 401.211 448.976 396.688C444.368 392.08 439.248 389.776 433.616 389.776H405.072V437.136Z" fill="white"/>
</svg>
